<?xml version="1.0" encoding="utf-8"?>
<!-- Generator: Adobe Illustrator 16.0.0, SVG Export Plug-In . SVG Version: 6.00 Build 0)  -->
<!DOCTYPE svg PUBLIC "-//W3C//DTD SVG 1.1//EN" "http://www.w3.org/Graphics/SVG/1.1/DTD/svg11.dtd">
<svg version="1.1" id="Layer_1" xmlns="http://www.w3.org/2000/svg" xmlns:xlink="http://www.w3.org/1999/xlink" x="0px" y="0px"
	 width="74.076px" height="59.757px" viewBox="14.258 -2.092 74.076 59.757" enable-background="new 14.258 -2.092 74.076 59.757"
	 xml:space="preserve">
<path d="M51.471,23.88c4.115,0,8.49-1.323,8.49-3.775v-4.627c0-0.153-0.018-0.301-0.051-0.447c-0.066-0.288-0.195-0.559-0.381-0.812
	c-0.092-0.127-0.198-0.248-0.316-0.365c-0.086-0.084-0.177-0.165-0.273-0.245c-0.038-0.03-0.08-0.059-0.117-0.087
	c-0.062-0.047-0.125-0.095-0.191-0.14c-0.053-0.036-0.109-0.071-0.165-0.106s-0.112-0.071-0.172-0.106
	c-0.066-0.039-0.138-0.077-0.206-0.114c-0.051-0.027-0.104-0.055-0.155-0.081c-0.081-0.041-0.163-0.08-0.247-0.119
	c-0.045-0.021-0.092-0.041-0.137-0.061c-0.096-0.041-0.192-0.082-0.291-0.121c-0.037-0.015-0.074-0.028-0.109-0.043
	c-0.109-0.042-0.222-0.083-0.336-0.123c-0.025-0.009-0.052-0.017-0.077-0.026c-0.126-0.042-0.255-0.083-0.385-0.122
	c-0.808-0.24-1.698-0.417-2.62-0.525c-0.373-0.043-0.748-0.077-1.126-0.099c-0.001,0-0.001,0-0.001,0
	c-0.377-0.022-0.756-0.033-1.133-0.033H51.47l0,0c-3.601,0-7.4,1.013-8.293,2.91c-0.127,0.27-0.195,0.559-0.195,0.866v0.445v1.538
	v2.645C42.981,22.557,47.355,23.88,51.471,23.88z M58.521,20.105c0,0.952-2.746,2.335-7.05,2.335v-3.188
	c2.661-0.001,5.425-0.557,7.05-1.612V20.105z M44.452,15.295c0.019-0.055,0.048-0.112,0.083-0.169c0.013-0.02,0.029-0.04,0.043-0.06
	c0.027-0.038,0.054-0.076,0.087-0.113c0.021-0.024,0.047-0.05,0.072-0.074c0.032-0.033,0.066-0.066,0.104-0.1
	c0.031-0.028,0.066-0.056,0.102-0.083c0.037-0.03,0.076-0.06,0.116-0.089c0.043-0.031,0.088-0.062,0.136-0.093
	c0.039-0.025,0.079-0.05,0.122-0.076c0.055-0.034,0.112-0.067,0.173-0.101c0.038-0.021,0.077-0.04,0.115-0.061
	c0.073-0.037,0.145-0.074,0.223-0.11c0.027-0.013,0.056-0.025,0.084-0.038c0.779-0.35,1.841-0.653,3.133-0.828
	c0.004,0,0.009-0.001,0.013-0.001c0.185-0.025,0.375-0.047,0.569-0.066c0.008,0,0.016-0.001,0.022-0.002
	c0.195-0.02,0.395-0.036,0.599-0.049c0.001,0,0.001,0,0.002,0c0.391-0.025,0.797-0.041,1.219-0.041c0.445,0,0.873,0.015,1.281,0.043
	c0.686,0.046,1.32,0.129,1.898,0.237c0.041,0.007,0.08,0.015,0.12,0.023c0.458,0.089,0.88,0.195,1.263,0.312
	c0.038,0.012,0.077,0.024,0.115,0.036c0.186,0.06,0.363,0.121,0.53,0.186c0.001,0,0.005,0.001,0.007,0.003
	c0.16,0.062,0.307,0.127,0.447,0.194c0.035,0.017,0.07,0.033,0.104,0.049c0.138,0.067,0.268,0.136,0.384,0.205
	c0.003,0.002,0.006,0.005,0.011,0.007c0.112,0.067,0.211,0.136,0.302,0.205c0.024,0.019,0.049,0.036,0.073,0.055
	c0.088,0.071,0.169,0.142,0.234,0.212c0.186,0.197,0.283,0.391,0.283,0.569c0,0.952-2.748,2.335-7.051,2.335
	c-0.318,0-0.625-0.01-0.926-0.024c-0.089-0.004-0.176-0.01-0.265-0.016c-0.215-0.013-0.426-0.03-0.632-0.05
	c-0.085-0.009-0.169-0.016-0.253-0.026c-0.241-0.027-0.476-0.059-0.701-0.094c-0.031-0.005-0.063-0.009-0.093-0.014
	c-0.266-0.043-0.519-0.093-0.762-0.147c-0.035-0.007-0.068-0.016-0.103-0.024c-0.209-0.048-0.41-0.099-0.599-0.154
	c-0.038-0.011-0.077-0.021-0.113-0.033c-1.02-0.302-1.77-0.685-2.195-1.067c-0.016-0.015-0.033-0.029-0.047-0.044
	c-0.038-0.036-0.076-0.072-0.108-0.108c-0.043-0.047-0.082-0.096-0.114-0.143c-0.015-0.021-0.024-0.042-0.036-0.062
	c-0.021-0.039-0.042-0.077-0.056-0.115c-0.007-0.018-0.015-0.036-0.02-0.053c-0.016-0.055-0.028-0.109-0.028-0.161
	C44.42,15.419,44.431,15.357,44.452,15.295z"/>
<path d="M88.305,13.537c-0.006-0.02-0.016-0.039-0.023-0.058c-0.016-0.042-0.035-0.083-0.058-0.121
	c-0.013-0.021-0.026-0.039-0.04-0.058c-0.026-0.035-0.059-0.067-0.092-0.097c-0.016-0.016-0.03-0.031-0.047-0.044
	c-0.008-0.005-0.014-0.012-0.021-0.018c-0.046-0.033-0.097-0.058-0.149-0.078c-0.001,0-0.001-0.002-0.002-0.002l-0.002,0
	c-0.002,0-0.002,0-0.003,0l-9.835-3.766V8.668c0-0.153-0.018-0.302-0.049-0.447c-0.066-0.289-0.197-0.559-0.383-0.812
	c-0.09-0.126-0.197-0.248-0.316-0.365C77.201,6.96,77.109,6.879,77.012,6.8c-0.036-0.031-0.078-0.059-0.117-0.088
	c-0.062-0.047-0.124-0.095-0.191-0.14c-0.053-0.037-0.109-0.071-0.164-0.107c-0.057-0.036-0.111-0.071-0.172-0.106
	C76.3,6.32,76.23,6.283,76.16,6.245c-0.051-0.027-0.102-0.055-0.154-0.082c-0.08-0.041-0.164-0.08-0.248-0.118
	c-0.045-0.021-0.092-0.042-0.137-0.062c-0.096-0.042-0.191-0.083-0.291-0.122c-0.036-0.015-0.074-0.028-0.109-0.043
	c-0.109-0.042-0.222-0.083-0.336-0.122c-0.023-0.009-0.05-0.017-0.076-0.026c-0.127-0.042-0.256-0.084-0.386-0.123
	c-0.808-0.24-1.696-0.417-2.62-0.525c-0.371-0.043-0.748-0.077-1.125-0.099l0,0c-0.38-0.022-0.757-0.033-1.135-0.033l0,0h-0.002
	c-0.854,0-1.723,0.059-2.559,0.171l-7.195-2.754V1.684c0-0.153-0.017-0.302-0.051-0.447c-0.066-0.289-0.195-0.559-0.38-0.812
	c-0.093-0.126-0.198-0.247-0.317-0.365c-0.084-0.084-0.176-0.165-0.273-0.245c-0.037-0.03-0.079-0.059-0.117-0.087
	c-0.062-0.047-0.124-0.095-0.19-0.14c-0.054-0.036-0.11-0.071-0.165-0.106c-0.057-0.036-0.113-0.071-0.172-0.106
	c-0.066-0.04-0.137-0.077-0.207-0.114c-0.051-0.027-0.104-0.055-0.154-0.082c-0.081-0.041-0.164-0.08-0.248-0.119
	c-0.045-0.021-0.091-0.041-0.137-0.061c-0.096-0.042-0.191-0.082-0.291-0.122c-0.035-0.015-0.074-0.028-0.109-0.043
	c-0.109-0.042-0.221-0.083-0.336-0.122c-0.025-0.009-0.05-0.017-0.076-0.026c-0.126-0.042-0.255-0.083-0.385-0.122
	c-0.809-0.24-1.699-0.417-2.621-0.525c-0.373-0.044-0.747-0.077-1.125-0.099c-0.002,0-0.002,0-0.002,0
	c-0.377-0.022-0.756-0.034-1.133-0.034l0,0l0,0c-3.601,0-7.4,1.014-8.294,2.91c-0.127,0.271-0.196,0.56-0.196,0.866v0.445l0,0
	l-7.25,2.731c0.043,0.005,0.084,0.013,0.126,0.019c-0.066-0.009-0.132-0.02-0.2-0.028c-0.372-0.044-0.748-0.077-1.126-0.1
	c-0.001,0-0.001,0-0.001,0c-0.377-0.022-0.756-0.033-1.133-0.033l0,0h0c-3.6,0-7.4,1.014-8.293,2.909
	c-0.127,0.271-0.196,0.56-0.196,0.866v0.445l-10.008,3.77c-0.055,0.02-0.107,0.048-0.156,0.081c-0.008,0.005-0.013,0.012-0.02,0.017
	c-0.018,0.013-0.032,0.028-0.048,0.043c-0.034,0.03-0.064,0.062-0.091,0.096c-0.015,0.019-0.028,0.038-0.041,0.058
	c-0.024,0.039-0.042,0.078-0.059,0.12c-0.008,0.019-0.017,0.039-0.023,0.06c-0.018,0.061-0.029,0.124-0.03,0.189
	c0,0.003-0.001,0.005-0.001,0.007c0,0.001,0,0.001,0,0.001s0,0,0,0v29.595c0,0.298,0.185,0.566,0.462,0.672l36.491,13.969
	c0.006,0.002,0.013,0.001,0.021,0.004c0.076,0.025,0.156,0.044,0.236,0.044s0.158-0.016,0.234-0.042
	c0.006-0.004,0.014-0.002,0.019-0.005L87.865,44c0.283-0.104,0.469-0.372,0.469-0.671V13.733
	C88.334,13.666,88.321,13.6,88.305,13.537z M67.131,6.491c0.186-0.024,0.375-0.047,0.569-0.066c0.009-0.001,0.015-0.001,0.022-0.002
	c0.195-0.019,0.395-0.036,0.6-0.048c0,0,0,0,0.002,0c0.391-0.025,0.797-0.042,1.219-0.042c0.444,0,0.873,0.015,1.281,0.043
	c0.686,0.046,1.318,0.129,1.898,0.237c0.041,0.007,0.078,0.015,0.118,0.023c0.458,0.09,0.88,0.196,1.263,0.312
	c0.039,0.012,0.077,0.024,0.115,0.037c0.186,0.06,0.365,0.122,0.53,0.185c0.003,0.001,0.005,0.001,0.007,0.003
	c0.16,0.062,0.307,0.128,0.449,0.194c0.034,0.016,0.067,0.032,0.102,0.049c0.137,0.067,0.267,0.135,0.385,0.205
	c0.002,0.002,0.006,0.004,0.009,0.007c0.112,0.067,0.211,0.136,0.304,0.204c0.024,0.019,0.047,0.037,0.07,0.055
	c0.089,0.071,0.171,0.142,0.238,0.213c0.184,0.197,0.28,0.39,0.28,0.569c0,0.953-2.746,2.336-7.051,2.336
	c-0.318,0-0.625-0.01-0.925-0.024c-0.09-0.004-0.178-0.011-0.266-0.016c-0.215-0.014-0.426-0.03-0.633-0.05
	c-0.083-0.008-0.169-0.016-0.252-0.026c-0.24-0.027-0.476-0.059-0.702-0.095c-0.029-0.005-0.062-0.008-0.091-0.013
	c-0.267-0.044-0.52-0.094-0.763-0.147c-0.034-0.008-0.069-0.017-0.104-0.024c-0.208-0.048-0.408-0.1-0.6-0.154
	c-0.037-0.011-0.075-0.022-0.111-0.033c-1.02-0.302-1.771-0.685-2.195-1.066c-0.016-0.015-0.032-0.03-0.047-0.044
	c-0.039-0.037-0.076-0.073-0.107-0.108c-0.043-0.047-0.081-0.095-0.113-0.143c-0.014-0.021-0.023-0.042-0.035-0.062
	c-0.021-0.039-0.043-0.077-0.057-0.115c-0.01-0.018-0.016-0.035-0.02-0.053c-0.016-0.055-0.028-0.108-0.028-0.161
	c0-0.06,0.013-0.121,0.032-0.183c0.019-0.055,0.047-0.112,0.082-0.169c0.012-0.02,0.029-0.04,0.043-0.06
	c0.027-0.038,0.055-0.076,0.088-0.113c0.021-0.025,0.047-0.05,0.072-0.075c0.031-0.034,0.066-0.067,0.104-0.1
	c0.032-0.027,0.066-0.056,0.101-0.083c0.039-0.03,0.076-0.059,0.116-0.089c0.044-0.031,0.089-0.062,0.136-0.093
	c0.039-0.025,0.08-0.05,0.122-0.076c0.055-0.033,0.112-0.067,0.173-0.101c0.038-0.02,0.078-0.04,0.116-0.061
	c0.071-0.037,0.143-0.074,0.223-0.11c0.027-0.013,0.057-0.025,0.085-0.038c0.779-0.351,1.84-0.653,3.133-0.827
	C67.122,6.491,67.127,6.491,67.131,6.491z M76.593,10.832v2.464c0,0.952-2.746,2.335-7.05,2.335v-3.188
	C72.205,12.442,74.969,11.886,76.593,10.832z M44.278,1.501c0.019-0.056,0.047-0.112,0.083-0.169c0.013-0.02,0.029-0.04,0.043-0.06
	c0.027-0.038,0.054-0.076,0.087-0.113c0.021-0.024,0.047-0.05,0.072-0.074c0.033-0.033,0.066-0.066,0.104-0.1
	c0.032-0.028,0.066-0.055,0.102-0.083c0.038-0.029,0.075-0.059,0.116-0.089c0.043-0.031,0.088-0.062,0.135-0.092
	c0.04-0.025,0.08-0.051,0.122-0.076c0.056-0.033,0.113-0.067,0.173-0.101c0.038-0.02,0.077-0.04,0.116-0.061
	c0.073-0.037,0.145-0.074,0.223-0.109c0.027-0.014,0.056-0.025,0.085-0.038c0.778-0.35,1.84-0.652,3.133-0.827
	c0.004-0.001,0.009-0.001,0.013-0.001c0.185-0.025,0.375-0.047,0.569-0.066c0.008-0.001,0.016-0.001,0.022-0.002
	c0.195-0.019,0.395-0.036,0.599-0.049c0.001,0,0.001,0,0.002,0c0.39-0.025,0.795-0.041,1.218-0.041c0.443,0,0.872,0.015,1.281,0.042
	c0.686,0.046,1.318,0.129,1.897,0.237c0.04,0.007,0.081,0.015,0.12,0.023c0.459,0.089,0.88,0.195,1.263,0.312
	C55.896-0.025,55.936-0.012,55.975,0c0.185,0.059,0.362,0.121,0.529,0.185c0.002,0.001,0.004,0.002,0.008,0.003
	c0.158,0.062,0.307,0.127,0.447,0.194c0.035,0.016,0.068,0.033,0.102,0.049c0.139,0.067,0.268,0.136,0.384,0.205
	c0.003,0.002,0.006,0.004,0.011,0.007c0.112,0.067,0.211,0.136,0.302,0.205c0.024,0.018,0.05,0.036,0.073,0.055
	c0.088,0.071,0.17,0.142,0.234,0.212c0.186,0.197,0.283,0.391,0.283,0.569c0,0.953-2.746,2.335-7.051,2.335
	c-0.318,0-0.625-0.009-0.925-0.024c-0.09-0.003-0.177-0.01-0.266-0.015c-0.214-0.014-0.426-0.031-0.632-0.05
	c-0.085-0.009-0.169-0.016-0.253-0.026c-0.241-0.027-0.476-0.06-0.702-0.095c-0.03-0.004-0.062-0.008-0.093-0.014
	c-0.266-0.043-0.519-0.093-0.762-0.147c-0.035-0.007-0.068-0.016-0.103-0.024c-0.208-0.048-0.409-0.099-0.599-0.154
	c-0.038-0.011-0.076-0.021-0.112-0.033c-1.02-0.302-1.77-0.685-2.195-1.066c-0.017-0.015-0.032-0.03-0.047-0.044
	c-0.038-0.037-0.076-0.073-0.108-0.108c-0.043-0.047-0.082-0.096-0.114-0.143c-0.014-0.021-0.024-0.042-0.036-0.062
	c-0.021-0.038-0.042-0.077-0.056-0.115c-0.007-0.018-0.015-0.036-0.02-0.053c-0.016-0.055-0.028-0.109-0.028-0.161
	C44.247,1.625,44.258,1.563,44.278,1.501z M58.348,3.847v2.464c0,0.952-2.746,2.335-7.049,2.335V5.459
	C53.96,5.458,56.723,4.902,58.348,3.847z M36.347,4.977c-0.039-0.007-0.077-0.015-0.115-0.021
	C36.271,4.962,36.309,4.971,36.347,4.977z M36.934,5.086c-0.005-0.001-0.01-0.003-0.016-0.004
	C36.924,5.083,36.929,5.085,36.934,5.086z M26.207,8.311c0.019-0.056,0.047-0.112,0.083-0.169c0.012-0.02,0.029-0.04,0.043-0.059
	c0.027-0.038,0.053-0.076,0.087-0.114c0.021-0.024,0.047-0.049,0.072-0.075c0.033-0.033,0.066-0.066,0.104-0.099
	c0.031-0.028,0.066-0.056,0.102-0.083c0.037-0.03,0.075-0.059,0.116-0.089c0.043-0.031,0.088-0.062,0.135-0.093
	c0.039-0.025,0.08-0.05,0.122-0.076c0.056-0.034,0.113-0.067,0.174-0.101c0.037-0.02,0.077-0.04,0.115-0.061
	c0.072-0.037,0.145-0.074,0.223-0.11c0.027-0.013,0.056-0.025,0.084-0.038c0.779-0.351,1.841-0.652,3.132-0.828
	c0.004,0,0.009-0.001,0.014-0.001c0.185-0.025,0.375-0.047,0.569-0.066c0.008,0,0.016-0.001,0.023-0.002
	c0.196-0.02,0.395-0.036,0.599-0.048c0.001,0,0.001,0,0.002,0c0.392-0.025,0.796-0.042,1.219-0.042c0.444,0,0.872,0.015,1.281,0.043
	c0.686,0.046,1.319,0.129,1.898,0.237c0.041,0.007,0.08,0.015,0.12,0.023c0.458,0.089,0.88,0.195,1.262,0.312
	c0.038,0.012,0.077,0.024,0.116,0.036c0.185,0.06,0.364,0.121,0.529,0.186c0.002,0,0.004,0.002,0.007,0.003
	c0.16,0.062,0.308,0.128,0.448,0.194c0.034,0.016,0.068,0.033,0.102,0.049c0.137,0.067,0.268,0.136,0.384,0.205
	c0.003,0.002,0.006,0.004,0.01,0.007c0.112,0.067,0.211,0.136,0.303,0.205c0.024,0.019,0.048,0.036,0.071,0.055
	c0.088,0.071,0.17,0.142,0.237,0.212c0.185,0.197,0.282,0.391,0.282,0.569c0,0.953-2.747,2.336-7.05,2.336
	c-0.319,0-0.625-0.01-0.925-0.024c-0.09-0.004-0.177-0.011-0.265-0.016c-0.216-0.014-0.427-0.03-0.632-0.05
	c-0.084-0.008-0.17-0.017-0.253-0.026c-0.241-0.028-0.475-0.06-0.702-0.095c-0.03-0.004-0.062-0.008-0.092-0.013
	c-0.266-0.044-0.519-0.093-0.762-0.147c-0.036-0.007-0.068-0.016-0.103-0.024c-0.209-0.048-0.409-0.099-0.599-0.154
	c-0.038-0.011-0.076-0.021-0.112-0.032c-1.02-0.302-1.77-0.686-2.195-1.067c-0.016-0.015-0.032-0.029-0.047-0.044
	C26.5,9.1,26.461,9.063,26.43,9.027c-0.043-0.047-0.082-0.095-0.113-0.142c-0.015-0.021-0.024-0.042-0.037-0.062
	c-0.021-0.038-0.041-0.077-0.056-0.115c-0.007-0.018-0.015-0.036-0.02-0.053c-0.016-0.055-0.028-0.108-0.028-0.161
	C26.175,8.435,26.186,8.373,26.207,8.311z M40.276,10.657v2.464c0,0.952-2.746,2.335-7.05,2.335v-3.188
	C35.888,12.269,38.65,11.712,40.276,10.657z M24.735,10.476L24.735,10.476v2.646c0,2.452,4.375,3.775,8.489,3.775
	c4.116,0,8.49-1.324,8.49-3.775V8.494c0-0.153-0.017-0.302-0.05-0.447c-0.066-0.289-0.196-0.559-0.38-0.812
	c-0.093-0.127-0.199-0.249-0.317-0.366c-0.084-0.083-0.176-0.165-0.274-0.244c-0.036-0.03-0.079-0.059-0.117-0.088
	c-0.062-0.047-0.124-0.094-0.19-0.139c-0.053-0.037-0.109-0.072-0.166-0.106c-0.057-0.036-0.112-0.071-0.171-0.106
	c-0.066-0.039-0.137-0.077-0.208-0.115c-0.05-0.027-0.102-0.054-0.155-0.081c-0.08-0.041-0.164-0.08-0.247-0.118
	c-0.044-0.021-0.09-0.042-0.137-0.062c-0.095-0.042-0.191-0.083-0.29-0.122c-0.037-0.015-0.073-0.029-0.11-0.043
	c-0.11-0.042-0.221-0.083-0.335-0.122c-0.026-0.009-0.052-0.017-0.077-0.026c-0.096-0.032-0.195-0.062-0.294-0.094l4.612-1.738V6.31
	c0,2.452,4.374,3.775,8.489,3.775c4.115,0,8.49-1.324,8.49-3.775V3.851l4.633,1.773c-1.529,0.491-2.72,1.222-3.17,2.178
	c-0.129,0.271-0.197,0.559-0.197,0.866v0.444v1.538v2.645c0,2.452,4.374,3.775,8.488,3.775c4.118,0,8.492-1.323,8.492-3.775v-2.46
	l7.555,2.892l-24.387,9.19l-9.729,3.666l-15.693-6.007l-18.772-7.187L24.735,10.476z M86.895,42.831L52.189,55.907V27.849
	l34.705-13.076V42.831z"/>
<text transform="matrix(1 0 0 1 14.2593 68.1245)" font-family="'HelveticaNeue-Bold'" font-size="2.9879">Created by jon trillana</text>
<text transform="matrix(1 0 0 1 14.2593 71.1118)" font-family="'HelveticaNeue-Bold'" font-size="2.9879">from the Noun Project</text>
</svg>
