<?xml version="1.0" encoding="utf-8"?>
<!-- Generator: Adobe Illustrator 16.0.0, SVG Export Plug-In . SVG Version: 6.00 Build 0)  -->
<!DOCTYPE svg PUBLIC "-//W3C//DTD SVG 1.1//EN" "http://www.w3.org/Graphics/SVG/1.1/DTD/svg11.dtd">
<svg version="1.1" id="Layer_1" xmlns="http://www.w3.org/2000/svg" xmlns:xlink="http://www.w3.org/1999/xlink" x="0px" y="0px"
	 width="98.353px" height="96.889px" viewBox="0 0 98.353 96.889" enable-background="new 0 0 98.353 96.889" xml:space="preserve">
<g id="Background">
</g>
<g id="Pictograms">
	<path d="M52.119,45.286c1.494,1.503,1.494,3.927,0,5.421c-1.505,1.494-3.928,1.494-5.422,0c-1.493-1.495-1.493-3.918,0-5.421
		C48.19,43.792,50.614,43.792,52.119,45.286z"/>
	<path d="M70.438,67.687L55.34,42.308c-0.081-0.144-0.202-0.265-0.357-0.357L29.688,26.996c-0.399-0.235-0.91-0.174-1.248,0.164
		c-0.328,0.327-0.388,0.838-0.154,1.237l14.955,25.295c0.082,0.153,0.205,0.276,0.357,0.369l25.521,15.18
		c0.161,0.091,0.348,0.144,0.521,0.144c0.011,0,0.011,0,0.022,0c0.542-0.041,1.021-0.46,1.021-1.023
		C70.684,68.096,70.592,67.86,70.438,67.687z M44.866,52.435L32.07,30.791l21.642,12.786l12.992,21.848L44.866,52.435z"/>
	<path d="M52.119,45.286c1.494,1.503,1.494,3.927,0,5.421c-1.505,1.494-3.928,1.494-5.422,0c-1.493-1.495-1.493-3.918,0-5.421
		C48.19,43.792,50.614,43.792,52.119,45.286z"/>
	<path d="M70.438,67.687L55.34,42.308c-0.081-0.144-0.202-0.265-0.357-0.357L29.688,26.996c-0.399-0.235-0.91-0.174-1.248,0.164
		c-0.328,0.327-0.388,0.838-0.154,1.237l14.955,25.295c0.082,0.153,0.205,0.276,0.357,0.369l25.521,15.18
		c0.161,0.091,0.348,0.144,0.521,0.144c0.011,0,0.011,0,0.022,0c0.542-0.041,1.021-0.46,1.021-1.023
		C70.684,68.096,70.592,67.86,70.438,67.687z M44.866,52.435L32.07,30.791l21.642,12.786l12.992,21.848L44.866,52.435z"/>
	<path d="M52.119,50.705c-1.505,1.494-3.928,1.494-5.422,0c-1.493-1.494-1.493-3.917,0-5.421c1.494-1.494,3.917-1.494,5.422,0
		C53.613,46.788,53.613,49.212,52.119,50.705z"/>
	<path d="M70.438,67.687L55.34,42.308c-0.081-0.144-0.202-0.265-0.357-0.357L29.688,26.996c-0.399-0.235-0.91-0.174-1.248,0.164
		c-0.328,0.327-0.388,0.838-0.154,1.237l14.955,25.295c0.082,0.153,0.205,0.276,0.357,0.369l25.521,15.18
		c0.161,0.091,0.348,0.144,0.521,0.144c0.011,0,0.011,0,0.022,0c0.542-0.041,1.021-0.46,1.021-1.023
		C70.684,68.096,70.592,67.86,70.438,67.687z M44.866,52.435L32.07,30.791l21.642,12.786l12.992,21.848L44.866,52.435z"/>
	<path d="M49.408-1C22.415-1,0.453,20.95,0.453,47.944s21.961,48.945,48.955,48.945c26.983,0,48.945-21.95,48.945-48.944
		C98.353,20.952,76.391-1,49.408-1z M50.533,87.754v-4.573c0-0.562-0.461-1.021-1.023-1.021c-0.573,0-1.024,0.459-1.024,1.021v4.573
		c-21.08-0.48-38.173-17.419-38.889-38.439h5.021c0.562,0,1.023-0.459,1.023-1.023c0-0.563-0.459-1.023-1.023-1.023H9.586
		C9.945,25.922,27.17,8.625,48.486,8.135v5.268c0,0.572,0.451,1.023,1.024,1.023c0.562,0,1.023-0.451,1.023-1.023V8.135
		C71.757,8.738,88.87,25.993,89.218,47.27H84.39c-0.561,0-1.021,0.46-1.021,1.023c0,0.563,0.461,1.023,1.021,1.023h4.817
		C88.492,70.274,71.522,87.16,50.533,87.754z"/>
</g>
<g id="Guides">
</g>
</svg>
