<?xml version="1.0" encoding="utf-8"?>
<!-- Generator: Adobe Illustrator 16.0.0, SVG Export Plug-In . SVG Version: 6.00 Build 0)  -->
<!DOCTYPE svg PUBLIC "-//W3C//DTD SVG 1.1//EN" "http://www.w3.org/Graphics/SVG/1.1/DTD/svg11.dtd">
<svg version="1.1" id="Layer_1" xmlns="http://www.w3.org/2000/svg" xmlns:xlink="http://www.w3.org/1999/xlink" x="0px" y="0px"
	 width="53.306px" height="51.788px" viewBox="24.643 8.55 53.306 51.788" enable-background="new 24.643 8.55 53.306 51.788"
	 xml:space="preserve">
<g id="Captions">
</g>
<g id="Layer_7" display="none">
</g>
<g id="Your_Icon">
	<polygon points="77.949,8.55 24.643,8.55 44.634,28.542 44.634,60.338 57.96,51.454 57.96,28.542 	"/>
</g>
<g id="Layer_6" display="none">
	<path display="inline" d="M70.994,61.062l-8.385-12.631l5.189-4.812V9.202c0-0.759-0.617-1.375-1.377-1.375H35.973
		c-0.761,0-1.378,0.616-1.378,1.375V43.62l5.311,4.921l-8.307,12.521h4.744l6.5-9.797l0.052,0.047h16.603l0.177-0.164l6.574,9.914
		H70.994L70.994,61.062z M60.188,44.987c-1.744,0-3.159-1.413-3.159-3.163c0-1.745,1.415-3.16,3.159-3.16
		c1.746,0,3.164,1.414,3.164,3.16C63.351,43.575,61.934,44.987,60.188,44.987z M46.454,10.47h9.485v3.264h-9.485V10.47z
		 M39.34,16.792h23.713v14.23H39.34V16.792z M42.796,44.987c-1.746,0-3.162-1.413-3.162-3.163c0-1.745,1.415-3.16,3.162-3.16
		c1.747,0,3.164,1.414,3.164,3.16C45.961,43.575,44.544,44.987,42.796,44.987z"/>
</g>
<g id="Layer_5" display="none">
	<path display="inline" d="M71.922,17.369c-4.907-5.849-12.259-9.58-20.51-9.58c-14.796,0-26.769,11.931-26.769,26.655h10.663
		c0-8.86,7.233-16.067,16.137-16.067c5.327,0,10.05,2.593,12.992,6.568l-6.271,5.991l19.785-0.009V11.235L71.922,17.369z"/>
	<path display="inline" d="M51.147,50.509c-5.328,0-10.048-2.592-12.992-6.568l6.27-5.99L24.643,37.96v19.692l6.025-6.135
		c4.908,5.85,12.26,9.582,20.512,9.582c14.799,0,26.771-11.934,26.771-26.657H67.285C67.285,43.301,60.051,50.509,51.147,50.509z"/>
</g>
<g id="Layer_4" display="none">
	<polygon display="inline" points="37.97,7.792 64.622,34.446 37.97,61.096 	"/>
</g>
<text transform="matrix(1 0 0 1 14.2593 84.4443)" font-family="'HelveticaNeue-Bold'" font-size="3.7037">Created by Naomi Atkinson</text>
<text transform="matrix(1 0 0 1 14.2593 88.1484)" font-family="'HelveticaNeue-Bold'" font-size="3.7037">from the Noun Project</text>
</svg>
