<?xml version="1.0" encoding="utf-8"?>
<!-- Generator: Adobe Illustrator 16.0.0, SVG Export Plug-In . SVG Version: 6.00 Build 0)  -->
<!DOCTYPE svg PUBLIC "-//W3C//DTD SVG 1.1//EN" "http://www.w3.org/Graphics/SVG/1.1/DTD/svg11.dtd">
<svg version="1.1" id="Layer_1" xmlns="http://www.w3.org/2000/svg" xmlns:xlink="http://www.w3.org/1999/xlink" x="0px" y="0px"
	 width="61.333px" height="51.333px" viewBox="19.5 8.5 61.333 51.333" enable-background="new 19.5 8.5 61.333 51.333"
	 xml:space="preserve">
<g id="Captions">
</g>
<g id="Layer_7" display="none">
</g>
<g id="Your_Icon">
	<path d="M73.966,50.117c0,0-2.253,0.156-4.638,0.291c-0.89-0.997-0.768-3.497-0.656-4.667c0.929-1.024,1.749-2.325,2.236-3.804
		c0.053,0.081,0.109,0.15,0.185,0.196c0.833,0.457,0.626-1.415,0.664-2.208c0.043-0.792,0.628-1.833,0-1.833
		c-0.167,0-0.29,0.026-0.386,0.06c-0.115-4.521-1.199-8.042-6.65-8.042c-5.805,0-6.585,3.573-6.654,8.136
		c-0.095-0.077-0.258-0.153-0.547-0.153c-0.627,0-0.041,1.04,0,1.833c0.039,0.792-0.168,2.665,0.665,2.208
		c0.122-0.071,0.202-0.201,0.263-0.375c0.445,1.51,1.231,2.844,2.146,3.896c0.02,0.165,0.035,0.367,0.048,0.581
		c-1.468,0.097-3.688,0.239-5.989,0.366c-1.481-1.656-1.28-5.826-1.09-7.778c1.549-1.708,2.914-3.877,3.73-6.337
		c0.082,0.139,0.176,0.253,0.303,0.323c1.387,0.765,1.04-2.358,1.111-3.678c0.07-1.318,1.039-3.053,0-3.053
		c-0.283,0-0.488,0.042-0.646,0.099c-0.197-7.532-1.997-13.403-11.084-13.403c-9.678,0-10.976,5.949-11.099,13.556
		c-0.15-0.132-0.42-0.252-0.91-0.252c-1.04,0-0.07,1.735,0,3.053c0.069,1.319-0.276,4.443,1.109,3.678
		c0.205-0.111,0.344-0.335,0.44-0.619c0.742,2.513,2.054,4.734,3.581,6.49c0.189,1.876,0.443,6.207-1.067,7.914
		c-3.997-0.217-7.742-0.473-7.742-0.473c-3.678,0-6.664,2.981-6.664,6.661v3.332h26.685h17.738h8.917v-2.003
		C77.966,51.908,76.172,50.117,73.966,50.117z"/>
</g>
<g id="Layer_6" display="none">
	<path display="inline" d="M72.061,28.001v-8.153v-3.054v-0.263H60.785V14.27H43.037v2.262H31.023l0.001,0.263h-0.001v11.207h-5.606
		l7.394,26.619h36.97l7.395-26.619H72.061z M33.98,19.848h9.057v1.814h17.748v-1.814h8.316v8.153H33.98V19.848z"/>
</g>
<g id="Layer_5" display="none">
	<path display="inline" d="M51.295,60.911c-5.627,0-10.206-4.556-10.248-10.173V15.662c0-4.236,3.447-7.684,7.687-7.684
		c4.239,0,7.686,3.448,7.686,7.687V41.97c0,2.824-2.3,5.122-5.125,5.122c-2.824,0-5.122-2.297-5.122-5.122l0.007-13.155h2.959V42.13
		c0.081,1.116,1.019,2,2.156,2c1.191,0,2.163-0.969,2.163-2.161V15.662c0-2.604-2.121-4.723-4.724-4.723
		c-2.606,0-4.727,2.119-4.727,4.726v34.998c0,4.02,3.271,7.287,7.288,7.287c4.02,0,7.288-3.268,7.288-7.287V21.509h2.962v29.229
		C61.503,56.355,56.922,60.911,51.295,60.911z"/>
</g>
<g id="Layer_4" display="none">
	<g display="inline">
		<path d="M51.297,32.037c-3.675,0-6.664,2.987-6.664,6.664c0,3.673,2.989,6.662,6.664,6.662c3.674,0,6.662-2.989,6.662-6.662
			C57.959,35.024,54.971,32.037,51.297,32.037z"/>
		<path d="M60.181,21.117v-8.883H42.412v8.883H24.643v35.539H77.95V21.117H60.181z M51.297,49.806
			c-6.126,0-11.105-4.983-11.105-11.105c0-6.125,4.98-11.105,11.105-11.105c6.123,0,11.105,4.981,11.105,11.105
			C62.402,44.824,57.42,49.806,51.297,49.806z"/>
	</g>
</g>
<text transform="matrix(1 0 0 1 14.2593 84.4443)" font-family="'HelveticaNeue-Bold'" font-size="3.7037">Created by Naomi Atkinson</text>
<text transform="matrix(1 0 0 1 14.2593 88.1484)" font-family="'HelveticaNeue-Bold'" font-size="3.7037">from the Noun Project</text>
</svg>
