<?xml version="1.0" encoding="utf-8"?>
<!-- Generator: Adobe Illustrator 16.0.0, SVG Export Plug-In . SVG Version: 6.00 Build 0)  -->
<!DOCTYPE svg PUBLIC "-//W3C//DTD SVG 1.1//EN" "http://www.w3.org/Graphics/SVG/1.1/DTD/svg11.dtd">
<svg version="1.1" id="Layer_1" xmlns="http://www.w3.org/2000/svg" xmlns:xlink="http://www.w3.org/1999/xlink" x="0px" y="0px"
	 width="67px" height="97.677px" viewBox="0 0 67 97.677" enable-background="new 0 0 67 97.677" xml:space="preserve">
<g id="Layer_x0020_1">
	<path fill="#1F1A17" d="M50.547,61.759v35.918H33.912V76.543h-2.124V97.68H15.152V61.759H50.547L50.547,61.759z M15.212,60.547
		l1.19-10.556l0,0l2.343-20.787c0.322-1.395,1.428-2.232,2.861-2.211h3.282h1.101h13.177h0.938h3.987
		c1.435-0.021,2.54,0.817,2.863,2.211l0.011,0.108l2.332,20.679l0,0l1.19,10.556H15.212z M15.31,48.843l-1.723,6.134
		c-0.249,0.779-0.765,1.282-1.519,1.089l-0.191-0.05l-0.402,1.482c1.333,1.155,2.146,2.842,2.345,4.718
		c0.202,1.9-1.66,6.635-4.998,5.484c-2.712-0.932,1.959-7.659-1.411-8.012c-1.333-0.214-1.962,1.258-2.08,2.24
		c-1.044,8.711-5.643,3.757-5.314,0.287c0.277-2.917,2.208-5.373,5.181-6.085l0.479-1.758l-0.485-0.128
		c-0.833-0.29-0.998-1.185-0.57-2.081l6.586-16.984c1.317-2.631,2.962-5.383,6.299-5.815L15.31,48.843z M48.193,29.373
		c3.276,0.451,4.783,3.188,6.093,5.809l6.588,16.984c0.427,0.896,0.264,1.791-0.571,2.081l-0.485,0.128l0.48,1.758
		c2.973,0.712,4.903,3.168,5.18,6.085c0.328,3.47-4.272,8.425-5.315-0.287c-0.119-0.984-0.748-2.455-2.08-2.24
		c-3.372,0.353,1.3,7.08-1.41,8.012c-3.339,1.15-5.2-3.584-4.998-5.484c0.198-1.876,1.01-3.564,2.344-4.718l-0.402-1.482
		l-0.192,0.05c-0.753,0.193-1.269-0.31-1.517-1.089l-1.438-5.12l0.032-0.002L48.193,29.373L48.193,29.373z M25.99,26.096v-1.942
		h-1.61c-2.324,0-4.224-1.901-4.224-4.225V8.583c0-2.324,1.901-4.225,4.224-4.225h1.61V0.375c0-0.394,0.279-0.715,0.621-0.715
		h11.937c0.341,0,0.62,0.321,0.62,0.715v3.984h1.611c2.324,0,4.223,1.901,4.223,4.225v11.346c0,2.324-1.901,4.225-4.223,4.225
		h-1.611v1.942H25.99z M32.575,18.248c0.812,0,1.697-0.142,2.475-0.28c0.904-0.16,1.152-0.319,1.907-0.703
		c0.84-0.424,0.985,0.436,0.49,0.846c-0.418,0.346-1.109,0.79-2.37,1c-0.8,0.133-1.641,0.23-2.529,0.236
		c-0.787-0.001-1.582-0.067-2.388-0.208c-0.873-0.181-1.731-0.389-2.428-0.95c-0.544-0.439-0.383-1.293,0.492-0.949
		c0.819,0.322,1.063,0.549,1.962,0.729C31.136,18.158,31.765,18.248,32.575,18.248z M36.748,9.636c0.945,0,1.713,0.769,1.713,1.715
		c0,0.946-0.768,1.715-1.713,1.715c-0.948,0-1.716-0.769-1.716-1.715C35.032,10.403,35.8,9.636,36.748,9.636z M28.556,9.636
		c0.948,0,1.715,0.769,1.715,1.715c0,0.946-0.769,1.715-1.715,1.715c-0.946,0-1.715-0.769-1.715-1.715
		C26.841,10.403,27.608,9.636,28.556,9.636z"/>
</g>
</svg>
