<?xml version="1.0" encoding="utf-8"?>
<!-- Generator: Adobe Illustrator 16.0.0, SVG Export Plug-In . SVG Version: 6.00 Build 0)  -->
<!DOCTYPE svg PUBLIC "-//W3C//DTD SVG 1.1//EN" "http://www.w3.org/Graphics/SVG/1.1/DTD/svg11.dtd">
<svg version="1.1" id="Your_Icon" xmlns="http://www.w3.org/2000/svg" xmlns:xlink="http://www.w3.org/1999/xlink" x="0px" y="0px"
	 width="74.075px" height="73.947px" viewBox="14.259 -2.466 74.075 73.947" enable-background="new 14.259 -2.466 74.075 73.947"
	 xml:space="preserve">
<path d="M87.842,63.513L64.668,40.338c3.01-4.487,4.627-9.762,4.627-15.286c0-7.35-2.862-14.261-8.061-19.458
	c-5.197-5.197-12.107-8.059-19.458-8.059c-7.35,0-14.261,2.862-19.458,8.059c-5.197,5.198-8.059,12.108-8.059,19.458
	c0,7.351,2.862,14.26,8.06,19.458s12.107,8.061,19.458,8.061c5.586,0,10.916-1.655,15.435-4.73l23.152,23.15
	c0.781,0.782,2.219,0.611,3.209-0.379l3.891-3.89C88.455,65.73,88.625,64.294,87.842,63.513z M41.777,45.115
	c-11.063,0-20.063-9-20.063-20.063s9-20.063,20.063-20.063s20.063,9,20.063,20.063S52.84,45.115,41.777,45.115z"/>
<text transform="matrix(1 0 0 1 14.2593 84.4443)" font-family="'HelveticaNeue-Bold'" font-size="3.7037">Created by Egor Culcea</text>
<text transform="matrix(1 0 0 1 14.2593 88.1484)" font-family="'HelveticaNeue-Bold'" font-size="3.7037">from the Noun Project</text>
</svg>
