<?xml version="1.0" encoding="utf-8"?>
<!-- Generator: Adobe Illustrator 16.0.0, SVG Export Plug-In . SVG Version: 6.00 Build 0)  -->
<!DOCTYPE svg PUBLIC "-//W3C//DTD SVG 1.1//EN" "http://www.w3.org/Graphics/SVG/1.1/DTD/svg11.dtd">
<svg version="1.1" id="Layer_1" xmlns="http://www.w3.org/2000/svg" xmlns:xlink="http://www.w3.org/1999/xlink" x="0px" y="0px"
	 width="26.75px" height="21.917px" viewBox="3.917 0 26.75 21.917" enable-background="new 3.917 0 26.75 21.917"
	 xml:space="preserve">
<path d="M10.774,5.096c0-0.467-0.165-0.866-0.496-1.197c-0.331-0.331-0.73-0.497-1.197-0.497c-0.467,0-0.866,0.166-1.197,0.497
	C7.553,4.23,7.387,4.629,7.387,5.096s0.166,0.866,0.497,1.197C8.214,6.624,8.614,6.79,9.081,6.79c0.467,0,0.866-0.166,1.197-0.496
	C10.609,5.962,10.774,5.563,10.774,5.096z M24.889,12.715c0,0.467-0.164,0.864-0.49,1.19l-6.494,6.508
	c-0.344,0.326-0.746,0.49-1.204,0.49c-0.467,0-0.864-0.164-1.19-0.49l-9.458-9.471c-0.335-0.326-0.62-0.772-0.853-1.336
	c-0.234-0.564-0.351-1.08-0.351-1.547V2.556c0-0.458,0.167-0.855,0.503-1.19c0.335-0.334,0.732-0.502,1.19-0.503h5.503
	c0.467,0,0.983,0.117,1.547,0.351c0.564,0.233,1.014,0.518,1.349,0.853l9.458,9.445C24.725,11.855,24.889,12.256,24.889,12.715
	L24.889,12.715z M29.967,12.715c0,0.467-0.162,0.864-0.489,1.19l-6.495,6.508c-0.344,0.326-0.744,0.49-1.203,0.49
	c-0.317,0-0.578-0.062-0.781-0.186s-0.436-0.322-0.7-0.596l6.217-6.217c0.327-0.326,0.489-0.723,0.489-1.19
	c0-0.458-0.162-0.86-0.489-1.204l-9.458-9.444c-0.335-0.335-0.785-0.62-1.349-0.854c-0.564-0.233-1.08-0.35-1.547-0.35h2.963
	c0.467,0,0.983,0.117,1.547,0.35c0.564,0.234,1.015,0.518,1.349,0.854l9.458,9.444C29.805,11.855,29.967,12.257,29.967,12.715z"/>
<text transform="matrix(1 0 0 1 4.8486 27.0215)" font-family="'HelveticaNeue-Bold'" font-size="1.1852">Created by Mike Jewett</text>
<text transform="matrix(1 0 0 1 4.8486 28.208)" font-family="'HelveticaNeue-Bold'" font-size="1.1852">from the Noun Project</text>
</svg>
