<?xml version="1.0" encoding="utf-8"?>
<!-- Generator: Adobe Illustrator 16.0.0, SVG Export Plug-In . SVG Version: 6.00 Build 0)  -->
<!DOCTYPE svg PUBLIC "-//W3C//DTD SVG 1.1//EN" "http://www.w3.org/Graphics/SVG/1.1/DTD/svg11.dtd">
<svg version="1.1" id="Your_Icon" xmlns="http://www.w3.org/2000/svg" xmlns:xlink="http://www.w3.org/1999/xlink" x="0px" y="0px"
	 width="58.116px" height="67.777px" viewBox="22.238 0 58.116 67.777" enable-background="new 22.238 0 58.116 67.777"
	 xml:space="preserve">
<g>
	<path d="M77.393,67.777H25.201c-1.636,0-2.963-1.338-2.963-2.985V47.708c0-1.649,1.327-2.986,2.963-2.986
		c1.636,0,2.963,1.337,2.963,2.986v14.097h46.264V47.708c0-1.649,1.327-2.986,2.963-2.986c1.637,0,2.963,1.337,2.963,2.986v17.083
		C80.355,66.439,79.027,67.777,77.393,67.777z"/>
</g>
<g>
	<g>
		<path d="M36.619,14.661L49.204,1.984c0.333-0.335,0.749-0.597,1.215-0.739c0.097-0.03,0.192-0.053,0.289-0.075
			c0.187-0.037,0.386-0.059,0.593-0.059c0.497,0,0.963,0.119,1.37,0.343c0.091,0.044,0.171,0.097,0.252,0.15
			c0.082,0.052,0.163,0.112,0.244,0.179c0.082,0.06,0.155,0.126,0.224,0.202l12.586,12.676c1.154,1.165,1.154,3.061,0,4.226
			c-1.164,1.164-3.037,1.164-4.193,0l-7.52-7.585v31.459c0,1.649-1.332,2.986-2.963,2.986c-1.637,0-2.963-1.336-2.963-2.986v-31.46
			l-7.526,7.585c-1.156,1.164-3.03,1.164-4.192,0C35.463,17.722,35.463,15.826,36.619,14.661z"/>
	</g>
</g>
</svg>
